HIERARCHY
ROOT hips
{
  OFFSET 0 10.074487846421558 1.314567655973056
  CHANNELS 6 Xposition Yposition Zposition Yrotation Xrotation Zrotation
  JOINT spine
  {
    OFFSET -7.042773748992335e-31 0.5690686926897363 0
    CHANNELS 3 Yrotation Xrotation Zrotation
    JOINT chest
    {
      OFFSET 0 1.2435964857087873 0
      CHANNELS 3 Yrotation Xrotation Zrotation
      JOINT upperChest
      {
        OFFSET 0 1.194994586872362 0
        CHANNELS 3 Yrotation Xrotation Zrotation
        JOINT neck
        {
          OFFSET 0 1.515103653293861 0
          CHANNELS 3 Yrotation Xrotation Zrotation
          JOINT head
          {
            OFFSET 0 0.8111851616465653 0
            CHANNELS 3 Yrotation Xrotation Zrotation
            JOINT leftEye
            {
              OFFSET 0.27141371691966987 0.7490044407698551 0.18219031050045686
              CHANNELS 3 Yrotation Xrotation Zrotation
              End Site
              {
                OFFSET 0.27141371691966987 0.7490044407698551 0.18219031050045686
              }
            }
            JOINT rightEye
            {
              OFFSET -0.2714136877644943 0.7490044019380786 0.18219040411850668
              CHANNELS 3 Yrotation Xrotation Zrotation
              End Site
              {
                OFFSET -0.2714136877644943 0.7490044019380786 0.18219040411850668
              }
            }
          }
        }
        JOINT leftShoulder
        {
          OFFSET 0.4137993136083964 1.1593397335613034 0
          CHANNELS 3 Yrotation Xrotation Zrotation
          JOINT leftUpperArm
          {
            OFFSET 1.0096991868951026 0 0
            CHANNELS 3 Yrotation Xrotation Zrotation
            JOINT leftLowerArm
            {
              OFFSET 2.418380967671622 0 0
              CHANNELS 3 Yrotation Xrotation Zrotation
              JOINT leftHand
              {
                OFFSET 2.361538296260114 0 0
                CHANNELS 3 Yrotation Xrotation Zrotation
                JOINT leftIndexProximal
                {
                  OFFSET 0.7243699271447109 0.08118285989887508 0.2022042461579805
                  CHANNELS 3 Yrotation Xrotation Zrotation
                  JOINT leftIndexIntermediate
                  {
                    OFFSET 0.36553107045252053 -0.010567764853200323 -0.014102670024158437
                    CHANNELS 3 Yrotation Xrotation Zrotation
                    JOINT leftIndexDistal
                    {
                      OFFSET 0.22505120770060527 -0.007821041598631284 -0.007511611613336286
                      CHANNELS 3 Yrotation Xrotation Zrotation
                      End Site
                      {
                        OFFSET 0.22505120770060527 -0.007821041598631284 -0.007511611613336286
                      }
                    }
                  }
                }
                JOINT leftLittleProximal
                {
                  OFFSET 0.6721063881632002 0.08118279568569564 -0.3209324945517917
                  CHANNELS 3 Yrotation Xrotation Zrotation
                  JOINT leftLittleIntermediate
                  {
                    OFFSET 0.34587329423120616 5.3042709780015684e-8 -5.929537746918179e-8
                    CHANNELS 3 Yrotation Xrotation Zrotation
                    JOINT leftLittleDistal
                    {
                      OFFSET 0.1992782500022232 0.0030983716482184676 0.0038310952896712935
                      CHANNELS 3 Yrotation Xrotation Zrotation
                      End Site
                      {
                        OFFSET 0.1992782500022232 0.0030983716482184676 0.0038310952896712935
                      }
                    }
                  }
                }
                JOINT leftMiddleProximal
                {
                  OFFSET 0.7301229696860206 0.08118412848995638 0.022516891543707507
                  CHANNELS 3 Yrotation Xrotation Zrotation
                  JOINT leftMiddleIntermediate
                  {
                    OFFSET 0.4076277831942017 -0.000001240188283180288 -1.6203245635504349e-7
                    CHANNELS 3 Yrotation Xrotation Zrotation
                    JOINT leftMiddleDistal
                    {
                      OFFSET 0.2514739255593972 0.0000013850839168938478 -1.8644847207816007e-8
                      CHANNELS 3 Yrotation Xrotation Zrotation
                      End Site
                      {
                        OFFSET 0.2514739255593972 0.0000013850839168938478 -1.8644847207816007e-8
                      }
                    }
                  }
                }
                JOINT leftRingProximal
                {
                  OFFSET 0.7218060861525873 0.08118280646416753 -0.1494689818508163
                  CHANNELS 3 Yrotation Xrotation Zrotation
                  JOINT leftRingIntermediate
                  {
                    OFFSET 0.3781267508900358 0.000001373626195677602 -1.4143108284514483e-7
                    CHANNELS 3 Yrotation Xrotation Zrotation
                    JOINT leftRingDistal
                    {
                      OFFSET 0.21814333268795483 -0.0027137626495670197 -0.004991775417842292
                      CHANNELS 3 Yrotation Xrotation Zrotation
                      End Site
                      {
                        OFFSET 0.21814333268795483 -0.0027137626495670197 -0.004991775417842292
                      }
                    }
                  }
                }
                JOINT leftThumbProximal
                {
                  OFFSET 0.10743676110519984 -0.16423092885053192 -0.07708859146227388
                  CHANNELS 3 Yrotation Xrotation Zrotation
                  JOINT leftThumbIntermediate
                  {
                    OFFSET 0.40350402100066307 -0.01735099334274981 0.315629965828783
                    CHANNELS 3 Yrotation Xrotation Zrotation
                    JOINT leftThumbDistal
                    {
                      OFFSET 0.2320014489535681 -0.01842351809041043 0.21271298411519196
                      CHANNELS 3 Yrotation Xrotation Zrotation
                      End Site
                      {
                        OFFSET 0.2320014489535681 -0.01842351809041043 0.21271298411519196
                      }
                    }
                  }
                }
              }
            }
          }
        }
        JOINT rightShoulder
        {
          OFFSET -0.41379931360839656 1.1593397335613034 0
          CHANNELS 3 Yrotation Xrotation Zrotation
          JOINT rightUpperArm
          {
            OFFSET -1.0096991868951024 0 0
            CHANNELS 3 Yrotation Xrotation Zrotation
            JOINT rightLowerArm
            {
              OFFSET -2.4183809676716232 0 0
              CHANNELS 3 Yrotation Xrotation Zrotation
              JOINT rightHand
              {
                OFFSET -2.3615382962601132 0 0
                CHANNELS 3 Yrotation Xrotation Zrotation
                JOINT rightIndexProximal
                {
                  OFFSET -0.7243699271447109 0.08118285989887508 0.2022042461579805
                  CHANNELS 3 Yrotation Xrotation Zrotation
                  JOINT rightIndexIntermediate
                  {
                    OFFSET -0.36553107045252053 -0.010567764853200323 -0.014102670024158437
                    CHANNELS 3 Yrotation Xrotation Zrotation
                    JOINT rightIndexDistal
                    {
                      OFFSET -0.22505120770060527 -0.007821041598631284 -0.007511611613336286
                      CHANNELS 3 Yrotation Xrotation Zrotation
                      End Site
                      {
                        OFFSET -0.22505120770060527 -0.007821041598631284 -0.007511611613336286
                      }
                    }
                  }
                }
                JOINT rightLittleProximal
                {
                  OFFSET -0.6721063881632002 0.08118279568569564 -0.3209324945517917
                  CHANNELS 3 Yrotation Xrotation Zrotation
                  JOINT rightLittleIntermediate
                  {
                    OFFSET -0.34587329423120616 5.3042709780015684e-8 -5.929537746918179e-8
                    CHANNELS 3 Yrotation Xrotation Zrotation
                    JOINT rightLittleDistal
                    {
                      OFFSET -0.1992782500022232 0.0030983716482184676 0.0038310952896712935
                      CHANNELS 3 Yrotation Xrotation Zrotation
                      End Site
                      {
                        OFFSET -0.1992782500022232 0.0030983716482184676 0.0038310952896712935
                      }
                    }
                  }
                }
                JOINT rightMiddleProximal
                {
                  OFFSET -0.7301229696860206 0.08118412848995638 0.022516891543707507
                  CHANNELS 3 Yrotation Xrotation Zrotation
                  JOINT rightMiddleIntermediate
                  {
                    OFFSET -0.4076277831942017 -0.000001240188283180288 -1.6203245635504349e-7
                    CHANNELS 3 Yrotation Xrotation Zrotation
                    JOINT rightMiddleDistal
                    {
                      OFFSET -0.2514739255593972 0.0000013850839168938478 -1.8644847207816007e-8
                      CHANNELS 3 Yrotation Xrotation Zrotation
                      End Site
                      {
                        OFFSET -0.2514739255593972 0.0000013850839168938478 -1.8644847207816007e-8
                      }
                    }
                  }
                }
                JOINT rightRingProximal
                {
                  OFFSET -0.7218060861525873 0.08118280646416753 -0.1494689818508163
                  CHANNELS 3 Yrotation Xrotation Zrotation
                  JOINT rightRingIntermediate
                  {
                    OFFSET -0.3781267508900358 0.000001373626195677602 -1.4143108284514483e-7
                    CHANNELS 3 Yrotation Xrotation Zrotation
                    JOINT rightRingDistal
                    {
                      OFFSET -0.21814333268795483 -0.0027137626495670197 -0.004991775417842292
                      CHANNELS 3 Yrotation Xrotation Zrotation
                      End Site
                      {
                        OFFSET -0.21814333268795483 -0.0027137626495670197 -0.004991775417842292
                      }
                    }
                  }
                }
                JOINT rightThumbProximal
                {
                  OFFSET -0.10743676110519984 -0.16423092885053192 -0.07708859146227388
                  CHANNELS 3 Yrotation Xrotation Zrotation
                  JOINT rightThumbIntermediate
                  {
                    OFFSET -0.40350402100066307 -0.01735099334274981 0.315629965828783
                    CHANNELS 3 Yrotation Xrotation Zrotation
                    JOINT rightThumbDistal
                    {
                      OFFSET -0.2320014489535681 -0.01842351809041043 0.21271298411519196
                      CHANNELS 3 Yrotation Xrotation Zrotation
                      End Site
                      {
                        OFFSET -0.2320014489535681 -0.01842351809041043 0.21271298411519196
                      }
                    }
                  }
                }
              }
            }
          }
        }
      }
    }
  }
  JOINT leftUpperLeg
  {
    OFFSET 0.8487163290887698 -0.43932186100277326 0
    CHANNELS 3 Yrotation Xrotation Zrotation
    JOINT leftLowerLeg
    {
      OFFSET 0 -3.882816707004296 0
      CHANNELS 3 Yrotation Xrotation Zrotation
      JOINT leftFoot
      {
        OFFSET 0 -4.570431027442807 0.004629272230691511
        CHANNELS 3 Yrotation Xrotation Zrotation
        JOINT leftToes
        {
          OFFSET 0 -0.698875637876343 1.214565366696912
          CHANNELS 3 Yrotation Xrotation Zrotation
          End Site
          {
            OFFSET 0 -0.698875637876343 1.214565366696912
          }
        }
      }
    }
  }
  JOINT rightUpperLeg
  {
    OFFSET -0.8487163290887698 -0.43932186100277326 0
    CHANNELS 3 Yrotation Xrotation Zrotation
    JOINT rightLowerLeg
    {
      OFFSET 0 -3.882816707004296 0
      CHANNELS 3 Yrotation Xrotation Zrotation
      JOINT rightFoot
      {
        OFFSET 0 -4.570431027442807 0.004629272230691511
        CHANNELS 3 Yrotation Xrotation Zrotation
        JOINT rightToes
        {
          OFFSET 0 -0.698875637876343 1.214565366696912
          CHANNELS 3 Yrotation Xrotation Zrotation
          End Site
          {
            OFFSET 0 -0.698875637876343 1.214565366696912
          }
        }
      }
    }
  }
}
MOTION
Frames: 4
Frame Time: 0.03333333333333333
-0.1922091394662857 -8.717696469353992 -0.596823513507843 33.89840332282373 -67.96902650346257 -23.797282729078745 -1.1149909978213568 10.526262310576183 0.3555123967750689 -8.754805189343944 41.796847257900424 -5.182038729829936 0 0 0 0.29794300407322233 25.774602790322653 5.794518936790375 -2.601894536395446 0.4989664067229982 4.075778921070655 0 0 0 0 0 0 -12.305551946990299 2.6228110347878992 11.8274284501609 -27.053022968762296 61.20749062449763 -107.74202206353048 -55.67455876757317 -0.10603093001980649 2.35580637585468 7.893845196132516 45.797706953831515 93.79139769129424 -15.17038341812334 -4.641052478798643 -13.743964630887575 -0.6099392361262634 -1.701713049272658 -21.49702609917971 -1.281281483810888e-10 1.793762613445802e-24 1.6042536111691759e-12 22.42117408844266 13.270022161086773 -30.308385542696154 -4.854976324371578 -0.22635719338505925 -20.91944612837774 -0.00001904519644414877 0.000006429576069444102 0.0000018414009108281415 -4.77910227148952 -2.078819662161237 -24.22197664415297 -0.4034918988390725 -0.6432590113702756 -9.641520972989962 1.139979627027678e-10 6.3611093629270335e-15 -1.43444452663829e-12 5.288187539571523 2.1675537328300862 -27.2249701922552 -1.7657534032221818 0.2686178632939709 -13.0189042745914 -4.406931275537185e-7 -7.156672446509608e-7 0.0000010327646788383806 -10.176460303133423 -26.054670875830052 -11.33378588743694 4.603391719969217 -9.07534411236667 0.8322110623234188 0.000005755597296447236 -0.0000072741461573361696 0.000004142070253660616 1.8471586577429997 1.4354984209505695 -12.706523584282847 39.549566399055436 44.06149577980013 104.76939394134631 46.397104778402024 -2.214742795962542 -2.639706732372714 11.909154271212243 54.414932693466625 -64.43745875398884 7.564227613002795 -5.754010301980767 8.153128894173923 0.16988906363002898 -0.14217501579147676 14.92584448632783 3.933694872703174e-10 3.1805546814635168e-15 -4.874754472204794e-12 -14.811345194822346 5.323900567222384 8.576985087570932 7.36555303611017 0.7252243050598319 23.7604559826387 1.6628260911929426e-9 -3.1805543023118527e-15 -2.179830267765673e-11 0.8570374532879154 -2.6166018801097044 15.927419098068105 -0.24124982331905145 -0.16849994249320444 3.3704321370423735 0.0000012968432333744267 0.000003079465356356379 0.00001203905471449249 -7.6972117913718625 1.3414961571630688 12.438940130832863 1.8874997930488304 0.21911483027818765 11.722325034843449 -4.3803240153668535e-10 2.0219334966109398e-23 5.2894833502657416e-12 15.021727232772308 -12.736620374166034 0.02359539502167851 -13.054794442827623 -24.863238379933534 -7.205655104721232 0.0000010580100390114665 -0.000004210584999275591 -0.00001868279763174462 4.620646420802175 -55.69179820078793 7.447723284465968 32.31248602996435 58.459041281991354 26.69250878462293 -3.1302916419800972 -3.8468268424410637 -1.5384039068442168 -0.028949786273546888 -2.247681810208729 0.06917287599771262 -0.12422424931960385 -55.828351135490976 -12.77908191978121 1.92882223810686 69.58096835257653 4.174012732704125 -4.329816261775668 33.902081283686 -3.066829716442494 -0.16383339398831978 -2.82619541133163 0.4444203116884931
-0.19111888110637665 -8.71771017842229 -0.5971466898918152 33.993712075791784 -68.11223349422791 -23.9003086395868 -1.1429427466531288 10.542208054384327 0.31664435364364807 -8.829690490948982 41.85629785229001 -5.2683809799167225 0 0 0 0.3206934665882663 25.704312611992684 5.934077932349387 -2.4412140797107758 0.6106433852893809 3.9072559159047873 0 0 0 0 0 0 -12.305551946990299 2.6228110347878992 11.8274284501609 -27.026277508305306 61.42363018663576 -107.81266869473097 -55.90523454223232 -0.004636712109484477 2.2470868915146354 8.039827578952645 45.718297686999506 93.85357455618536 -14.944875343315644 -4.662946632740672 -13.948148983332942 -0.6497296803502608 -1.7842995472081253 -22.126403485665886 -1.281281483810888e-10 1.793762613445802e-24 1.6042536111691759e-12 22.185563966241766 13.655721843541748 -31.354584208528074 -4.8522801938256945 -0.2285121617264351 -20.888600817059263 -0.00001904519644414877 0.000006429576069444102 0.0000018414009108281415 -4.733397734943543 -2.1263616139062314 -24.63026667485477 -0.4331899439018024 -0.6705769747972418 -9.979994622721144 1.139979627027678e-10 6.3611093629270335e-15 -1.43444452663829e-12 5.45878530347226 2.3319608640375282 -28.08799516785693 -1.7795396430968813 0.2716663226622452 -13.16228016455906 -4.406931275537185e-7 -7.156672446509608e-7 0.0000010327646788383806 -10.176460303133423 -26.054670875830052 -11.33378588743694 4.603391719969217 -9.07534411236667 0.8322110623234188 0.000005755597296447236 -0.0000072741461573361696 0.000004142070253660616 1.8471586577429997 1.4354984209505695 -12.706523584282847 39.45757771132004 44.26340695378898 104.61611314790481 46.725268639975525 -2.081445038594134 -2.5906528819359207 11.93548927615481 54.47798817458853 -64.18161467567148 7.55673016234264 -5.70214540615746 7.946027059267446 0.16988906363002898 -0.14217501579147676 14.92584448632783 3.933694872703174e-10 3.1805546814635168e-15 -4.874754472204794e-12 -15.09324490887208 5.2634341246697955 8.053464796804358 7.3758142566063984 0.7269846075061573 23.82514420346753 1.6628260911929426e-9 -3.1805543023118527e-15 -2.179830267765673e-11 0.8061298923470868 -2.5691881084805828 15.595935229297298 -0.24167129208211033 -0.16810768517128039 3.3647516935905633 0.0000012968432333744267 0.000003079465356356379 0.00001203905471449249 -7.724953918064008 1.3282903511173034 12.079305975937045 1.8871646296612286 0.2190606285956104 11.719581130286207 -4.3803240153668535e-10 2.0219334966109398e-23 5.2894833502657416e-12 15.029491647844887 -12.390433419832645 0.05022168720311825 -13.26384869307557 -25.21837794599203 -7.356843268931476 0.0000010580100390114665 -0.000004210584999275591 -0.00001868279763174462 4.79122745099049 -55.415419352049746 7.318156939219774 31.507362021414732 58.4311105209154 25.938179955441925 -3.2409876301998968 -2.6823493441205293 -1.4050146071663947 -0.028871495430708122 -2.1948917363793226 0.06901121911814456 0.04484722702442712 -55.65184164016976 -12.82575684368747 1.8914517748968842 69.57932392397854 4.138829381002581 -4.333428119800979 33.92540197617139 -2.953304095129175 -0.16400537482527522 -2.798766483411722 0.44448275810348126
-0.1922043263912201 -8.718223016785938 -0.5984518527984619 34.13128012143892 -68.22084510456602 -23.997615864209028 -1.248404877421689 10.522431008718977 0.21889795427552702 -9.252540805454522 41.75007076425637 -5.603549795437844 0 0 0 0.39086758684859746 25.56639865015697 6.265793105219876 -1.914532065969517 0.9623048098776907 3.3642190856123766 0 0 0 0 0 0 -12.305551946990299 2.6228110347878992 11.8274284501609 -27.142595121850196 61.79318303136016 -108.25210212964586 -56.111252787107624 0.11886401309790592 2.0387043440820256 8.25450921421958 45.5067688821111 94.07921635196232 -14.159930280419111 -4.816015084819276 -14.932893654518475 -0.7031843254529191 -1.8964552293589931 -22.979368421919187 -1.281281483810888e-10 1.793762613445802e-24 1.6042536111691759e-12 21.363159205192865 14.7237402271907 -34.47187003488102 -4.836352685476518 -0.24138229402604264 -20.705322737246075 -0.00001904519644414877 0.000006429576069444102 0.0000018414009108281415 -4.514599834538485 -2.247040987080561 -26.00452220900271 -0.48464171831114067 -0.7185618872097618 -10.56931487543945 1.139979627027678e-10 6.3611093629270335e-15 -1.43444452663829e-12 5.800968349656003 2.7637606559131007 -30.532423445866133 -1.8129039470586803 0.2789206809519566 -13.509545924602628 -4.406931275537185e-7 -7.156672446509608e-7 0.0000010327646788383806 -10.176460303133423 -26.054670875830052 -11.33378588743694 4.603391719969217 -9.07534411236667 0.8322110623234188 0.000005755597296447236 -0.0000072741461573361696 0.000004142070253660616 1.8471586577429997 1.4354984209505695 -12.706523584282847 39.24045254778834 44.729835196948414 104.21454927339515 47.51587968630925 -1.6250190034329666 -2.5040653862941413 12.192781011688623 54.876472455704544 -63.33469935878444 7.457318322227532 -5.648872597910608 7.882517108709206 0.16988906363002898 -0.14217501579147676 14.92584448632783 3.933694872703174e-10 3.1805546814635168e-15 -4.874754472204794e-12 -15.399465077757853 5.168360779959833 7.330837438684203 7.3852655138660195 0.7285862559930363 23.88464553338914 1.6628260911929426e-9 -3.1805543023118527e-15 -2.179830267765673e-11 0.7768176810430621 -2.54804872934731 15.467219678186568 -0.23943194623282546 -0.17012062539327716 3.3936472722564512 0.0000012968432333744267 0.000003079465356356379 0.00001203905471449249 -7.772403296936052 1.3175537402867965 11.74079978848606 1.88650903421831 0.21895877532356448 11.714250040934393 -4.3803240153668535e-10 2.0219334966109398e-23 5.2894833502657416e-12 15.19454560696421 -11.627300066693339 0.08693894316193401 -13.689622766144193 -25.931317167681826 -7.652850194142309 0.0000010580100390114665 -0.000004210584999275591 -0.00001868279763174462 4.754026106870072 -55.2272381700106 7.253803363292847 30.030251248698576 58.5448517599917 24.595352460255146 -3.1150939840188046 -0.9269756567679206 -1.4008555960526017 -0.028660063087372026 -2.101827523660958 0.0687387538730351 0.4944223387570666 -55.45346190390951 -13.030674276578972 1.8417036549458674 69.53116314777242 4.090492076105074 -4.5242523150983285 34.03774109420641 -2.7728963801502684 -0.16446165589595488 -2.7533147972228664 0.4449745376634554
-0.2077578753232956 -8.719071190881092 -0.6029792428016663 34.131543177147236 -67.89951010121138 -23.748429522369108 -1.4912249783432632 10.389893843047515 0.061323351328509836 -10.586331755013797 41.11376720992857 -6.614905152166234 0 0 0 0.5058447608154965 25.37452985540452 6.622844462273114 -0.9387009717147149 1.4924337209355603 2.3636228082261543 0 0 0 0 0 0 -12.305551946990299 2.6228110347878992 11.8274284501609 -27.76840534399283 61.87043226164768 -109.53895971537 -55.51342623352201 -0.06825893901997325 1.9155508769471654 8.237750342633268 45.074767696613016 94.66437312489376 -13.070380435470044 -5.056389432436715 -16.494117985593466 -0.7254238521402491 -1.9450588446713133 -23.34568805693903 -1.281281483810888e-10 1.793762613445802e-24 1.6042536111691759e-12 20.22803831658321 16.074934007572676 -38.51009710833703 -4.802187304825346 -0.2692673253892981 -20.310746217065017 -0.00001904519644414877 0.000006429576069444102 0.0000018414009108281415 -4.140802084512253 -2.4159217393709276 -28.291862031907797 -0.5137105527020952 -0.7461403887485853 -10.90490135014694 1.139979627027678e-10 6.3611093629270335e-15 -1.43444452663829e-12 5.842394542415996 3.037952479499425 -33.071960066447055 -1.8409679198732132 0.28484556823740204 -13.801378033835258 -4.406931275537185e-7 -7.156672446509608e-7 0.0000010327646788383806 -10.176460303133423 -26.054670875830052 -11.33378588743694 4.603391719969217 -9.07534411236667 0.8322110623234188 0.000005755597296447236 -0.0000072741461573361696 0.000004142070253660616 1.8471586577429997 1.4354984209505695 -12.706523584282847 38.979126065305834 45.06961276602714 103.47906402630728 48.44751663117278 -1.0230636618825415 -2.5214396999832216 12.73913096368633 55.52463737291819 -61.744720238609986 7.287223904147785 -5.6835048113012805 8.313332493027364 0.16988906363002898 -0.14217501579147676 14.92584448632783 3.933694872703174e-10 3.1805546814635168e-15 -4.874754472204794e-12 -15.089677630253401 5.206677561708007 7.721639981902357 7.367940638289088 0.7256572563619279 23.775514028509747 1.6628260911929426e-9 -3.1805543023118527e-15 -2.179830267765673e-11 0.8655440217077942 -2.64554500929979 16.188452345303425 -0.23987490702923395 -0.1696773148186634 3.3871390020952656 0.0000012968432333744267 0.000003079465356356379 0.00001203905471449249 -7.796322748849124 1.3389029641063466 12.159096134939693 1.8859824020736815 0.21887574523040076 11.709715642168554 -4.3803240153668535e-10 2.0219334966109398e-23 5.2894833502657416e-12 15.524982156038524 -11.245201941206517 0.0007479898833434337 -13.893088731865115 -26.26747754193546 -7.789430257281526 0.0000010580100390114665 -0.000004210584999275591 -0.00001868279763174462 3.975908329502907 -56.21810857097441 7.662587091981507 29.245651402835122 59.43473685072599 24.04870055500579 -1.964816256592911 -1.874323253301384 -2.10893405217146 -0.030053499697082642 -2.859311996184967 0.07085782516328976 1.3642189498697206 -55.611865346381904 -13.592321955473079 1.8459521275876283 69.3474652200507 4.087503562094824 -5.121989653088623 34.33496341521488 -2.664186017739248 -0.1623512386535662 -2.8125473276940856 0.4410790516081401
